<svg width="143" height="130" viewBox="0 0 143 130" fill="none" xmlns="http://www.w3.org/2000/svg">
<path d="M29.292 60.8969C26.4108 60.8969 24.2318 60.0866 22.7552 58.4659C21.2786 56.8091 20.5402 54.4501 20.5402 51.3888V49.2278H26.1587V51.821C26.1587 54.27 27.1851 55.4946 29.238 55.4946C30.2465 55.4946 31.0028 55.2064 31.507 54.6302C32.0472 54.0179 32.3174 53.0455 32.3174 51.7129C32.3174 50.1282 31.9572 48.7416 31.2369 47.5531C30.5166 46.3286 29.184 44.8699 27.2392 43.1772C24.7901 41.0163 23.0793 39.0714 22.1069 37.3427C21.1345 35.5779 20.6483 33.597 20.6483 31.4001C20.6483 28.4108 21.4046 26.1058 22.9173 24.4851C24.4299 22.8284 26.6269 22 29.5081 22C32.3534 22 34.4963 22.8284 35.9369 24.4851C37.4136 26.1058 38.1519 28.4468 38.1519 31.5081V33.0748H32.5335V31.13C32.5335 29.8334 32.2813 28.897 31.7771 28.3207C31.2729 27.7085 30.5346 27.4023 29.5622 27.4023C27.5813 27.4023 26.5909 28.6089 26.5909 31.0219C26.5909 32.3905 26.951 33.6691 27.6713 34.8576C28.4277 36.0461 29.7783 37.4867 31.7231 39.1795C34.2082 41.3404 35.9189 43.3033 36.8553 45.068C37.7917 46.8328 38.2599 48.9037 38.2599 51.2807C38.2599 54.3781 37.4856 56.7551 35.9369 58.4118C34.4243 60.0686 32.2093 60.8969 29.292 60.8969Z" fill="black"/>
<path d="M41.6672 22.5402H50.419C53.3723 22.5402 55.5873 23.3326 57.0639 24.9173C58.5406 26.502 59.2789 28.825 59.2789 31.8863V35.6139C59.2789 38.6752 58.5406 40.9983 57.0639 42.5829C55.5873 44.1676 53.3723 44.96 50.419 44.96H47.6098V60.3567H41.6672V22.5402ZM50.419 39.5576C51.3914 39.5576 52.1118 39.2875 52.58 38.7473C53.0842 38.207 53.3363 37.2886 53.3363 35.9921V31.5081C53.3363 30.2116 53.0842 29.2932 52.58 28.7529C52.1118 28.2127 51.3914 27.9426 50.419 27.9426H47.6098V39.5576H50.419Z" fill="black"/>
<path d="M65.1991 22.5402H73.2486L79.4073 60.3567H73.4647L72.3842 52.8474V52.9555H65.6313L64.5508 60.3567H59.0404L65.1991 22.5402ZM71.6819 47.8232L69.0348 29.1311H68.9267L66.3336 47.8232H71.6819Z" fill="black"/>
<path d="M82.2903 22.5402H91.0962C94.1575 22.5402 96.3905 23.2605 97.7951 24.7012C99.1997 26.1058 99.902 28.2847 99.902 31.238V33.561C99.902 37.4867 98.6054 39.9718 96.0123 41.0163V41.1243C97.4529 41.5565 98.4614 42.4389 99.0376 43.7715C99.6499 45.104 99.956 46.8868 99.956 49.1198V55.7647C99.956 56.8451 99.992 57.7275 100.064 58.4118C100.136 59.0601 100.316 59.7084 100.604 60.3567H94.5537C94.3376 59.7444 94.1935 59.1682 94.1215 58.6279C94.0495 58.0877 94.0134 57.1153 94.0134 55.7107V48.7956C94.0134 47.0669 93.7253 45.8604 93.1491 45.1761C92.6088 44.4918 91.6544 44.1496 90.2858 44.1496H88.2329V60.3567H82.2903V22.5402ZM90.3939 38.7473C91.5824 38.7473 92.4648 38.4411 93.041 37.8289C93.6533 37.2166 93.9594 36.1902 93.9594 34.7495V31.8323C93.9594 30.4637 93.7073 29.4732 93.2031 28.861C92.7349 28.2487 91.9786 27.9426 90.9341 27.9426H88.2329V38.7473H90.3939Z" fill="black"/>
<path d="M104.079 22.5402H110.022V38.4772L117.585 22.5402H123.528L116.45 36.4243L123.636 60.3567H117.423L112.399 43.5013L110.022 48.3094V60.3567H104.079V22.5402Z" fill="black"/>
<path d="M26.2127 74.9428H20V69.5405H38.3679V74.9428H32.1552V107.357H26.2127V74.9428Z" fill="black"/>
<path d="M42.3255 69.5405H58.5324V74.9428H48.268V84.9371H56.4255V90.3394H48.268V101.954H58.5324V107.357H42.3255V69.5405Z" fill="black"/>
<path d="M71.4052 107.897C68.5599 107.897 66.381 107.087 64.8684 105.466C63.3917 103.845 62.6534 101.558 62.6534 98.6049V78.2922C62.6534 75.3389 63.3917 73.052 64.8684 71.4313C66.381 69.8106 68.5599 69.0002 71.4052 69.0002C74.2504 69.0002 76.4113 69.8106 77.8879 71.4313C79.4006 73.052 80.1569 75.3389 80.1569 78.2922V82.2899H74.5385V77.914C74.5385 75.573 73.5481 74.4025 71.5672 74.4025C69.5864 74.4025 68.596 75.573 68.596 77.914V99.0371C68.596 101.342 69.5864 102.495 71.5672 102.495C73.5481 102.495 74.5385 101.342 74.5385 99.0371V93.2566H80.1569V98.6049C80.1569 101.558 79.4006 103.845 77.8879 105.466C76.4113 107.087 74.2504 107.897 71.4052 107.897Z" fill="black"/>
<path d="M84.7928 69.5405H90.7353V84.9371H97.1101V69.5405H103.053V107.357H97.1101V90.3394H90.7353V107.357H84.7928V69.5405Z" fill="black"/>
</svg>
