<svg width="143" height="130" viewBox="0 0 143 130" fill="none" xmlns="http://www.w3.org/2000/svg">
<path d="M20.292 60.5402C17.4108 60.5402 15.2318 59.7299 13.7552 58.1092C12.2786 56.4524 11.5402 54.0934 11.5402 51.0321V48.8711H17.1587V51.4643C17.1587 53.9133 18.1851 55.1379 20.238 55.1379C21.2465 55.1379 22.0028 54.8497 22.507 54.2735C23.0472 53.6612 23.3174 52.6888 23.3174 51.3562C23.3174 49.7715 22.9572 48.3849 22.2369 47.1964C21.5166 45.9719 20.184 44.5133 18.2392 42.8205C15.7901 40.6596 14.0793 38.7147 13.1069 36.986C12.1345 35.2212 11.6483 33.2404 11.6483 31.0434C11.6483 28.0541 12.4046 25.7491 13.9173 24.1284C15.4299 22.4717 17.6269 21.6433 20.5081 21.6433C23.3534 21.6433 25.4963 22.4717 26.9369 24.1284C28.4136 25.7491 29.1519 28.0901 29.1519 31.1514V32.7181H23.5335V30.7733C23.5335 29.4767 23.2813 28.5403 22.7771 27.9641C22.2729 27.3518 21.5346 27.0457 20.5622 27.0457C18.5813 27.0457 17.5909 28.2522 17.5909 30.6652C17.5909 32.0338 17.951 33.3124 18.6713 34.5009C19.4277 35.6894 20.7783 37.13 22.7231 38.8228C25.2082 40.9837 26.9189 42.9466 27.8553 44.7113C28.7917 46.4761 29.2599 48.547 29.2599 50.924C29.2599 54.0214 28.4856 56.3984 26.9369 58.0551C25.4243 59.7119 23.2093 60.5402 20.292 60.5402Z" fill="white"/>
<path d="M32.6672 22.1835H41.419C44.3723 22.1835 46.5873 22.9759 48.0639 24.5606C49.5406 26.1453 50.2789 28.4683 50.2789 31.5296V35.2572C50.2789 38.3186 49.5406 40.6416 48.0639 42.2263C46.5873 43.8109 44.3723 44.6033 41.419 44.6033H38.6098V60H32.6672V22.1835ZM41.419 39.2009C42.3914 39.2009 43.1118 38.9308 43.58 38.3906C44.0842 37.8504 44.3363 36.932 44.3363 35.6354V31.1514C44.3363 29.8549 44.0842 28.9365 43.58 28.3962C43.1118 27.856 42.3914 27.5859 41.419 27.5859H38.6098V39.2009H41.419Z" fill="white"/>
<path d="M56.1991 22.1835H64.2486L70.4073 60H64.4647L63.3842 52.4907V52.5988H56.6313L55.5508 60H50.0404L56.1991 22.1835ZM62.6819 47.4665L60.0348 28.7744H59.9267L57.3336 47.4665H62.6819Z" fill="white"/>
<path d="M73.2903 22.1835H82.0962C85.1575 22.1835 87.3905 22.9039 88.7951 24.3445C90.1997 25.7491 90.902 27.928 90.902 30.8813V33.2043C90.902 37.13 89.6054 39.6151 87.0123 40.6596V40.7676C88.4529 41.1998 89.4614 42.0822 90.0376 43.4148C90.6499 44.7474 90.956 46.5301 90.956 48.7631V55.408C90.956 56.4885 90.992 57.3708 91.0641 58.0551C91.1361 58.7034 91.3162 59.3517 91.6043 60H85.5537C85.3376 59.3877 85.1935 58.8115 85.1215 58.2712C85.0495 57.731 85.0134 56.7586 85.0134 55.354V48.439C85.0134 46.7102 84.7253 45.5037 84.1491 44.8194C83.6088 44.1351 82.6544 43.7929 81.2858 43.7929H79.2329V60H73.2903V22.1835ZM81.3939 38.3906C82.5824 38.3906 83.4648 38.0845 84.041 37.4722C84.6533 36.8599 84.9594 35.8335 84.9594 34.3929V31.4756C84.9594 30.107 84.7073 29.1166 84.2031 28.5043C83.7349 27.892 82.9786 27.5859 81.9341 27.5859H79.2329V38.3906H81.3939Z" fill="white"/>
<path d="M95.0791 22.1835H101.022V38.1205L108.585 22.1835H114.528L107.45 36.0676L114.636 60H108.423L103.399 43.1447L101.022 47.9527V60H95.0791V22.1835Z" fill="white"/>
<path d="M17.2127 74.5861H11V69.1838H29.3679V74.5861H23.1552V107H17.2127V74.5861Z" fill="white"/>
<path d="M33.3255 69.1838H49.5324V74.5861H39.268V84.5804H47.4255V89.9827H39.268V101.598H49.5324V107H33.3255V69.1838Z" fill="white"/>
<path d="M62.4052 107.54C59.5599 107.54 57.381 106.73 55.8684 105.109C54.3917 103.488 53.6534 101.201 53.6534 98.2482V77.9355C53.6534 74.9823 54.3917 72.6953 55.8684 71.0746C57.381 69.4539 59.5599 68.6435 62.4052 68.6435C65.2504 68.6435 67.4113 69.4539 68.8879 71.0746C70.4006 72.6953 71.1569 74.9823 71.1569 77.9355V81.9332H65.5385V77.5574C65.5385 75.2164 64.5481 74.0459 62.5672 74.0459C60.5864 74.0459 59.596 75.2164 59.596 77.5574V98.6804C59.596 100.985 60.5864 102.138 62.5672 102.138C64.5481 102.138 65.5385 100.985 65.5385 98.6804V92.8999H71.1569V98.2482C71.1569 101.201 70.4006 103.488 68.8879 105.109C67.4113 106.73 65.2504 107.54 62.4052 107.54Z" fill="white"/>
<path d="M75.7928 69.1838H81.7353V84.5804H88.1101V69.1838H94.0526V107H88.1101V89.9827H81.7353V107H75.7928V69.1838Z" fill="white"/>
</svg>
